<mxfile host="65bd71144e">
    <diagram id="6PPz350OhuZyfIFLU02B" name="Page-1">
        <mxGraphModel dx="2886" dy="1711" grid="1" gridSize="10" guides="1" tooltips="0" connect="1" arrows="1" fold="1" page="1" pageScale="1" pageWidth="1169" pageHeight="827" math="0" shadow="0">
            <root>
                <mxCell id="0"/>
                <mxCell id="1" parent="0"/>
                <mxCell id="4U3FeDI-1R1MMvvjcm9z-57" style="edgeStyle=orthogonalEdgeStyle;curved=1;rounded=0;orthogonalLoop=1;jettySize=auto;html=1;entryX=0.5;entryY=1;entryDx=0;entryDy=0;fontSize=23;fontColor=#FFFFCC;" parent="1" target="4U3FeDI-1R1MMvvjcm9z-14" edge="1">
                    <mxGeometry relative="1" as="geometry">
                        <mxPoint x="50" y="10" as="sourcePoint"/>
                    </mxGeometry>
                </mxCell>
                <mxCell id="4U3FeDI-1R1MMvvjcm9z-59" style="edgeStyle=orthogonalEdgeStyle;curved=1;rounded=0;orthogonalLoop=1;jettySize=auto;html=1;fontSize=23;fontColor=#FFFFCC;" parent="1" source="4U3FeDI-1R1MMvvjcm9z-1" target="4U3FeDI-1R1MMvvjcm9z-5" edge="1">
                    <mxGeometry relative="1" as="geometry"/>
                </mxCell>
                <mxCell id="4U3FeDI-1R1MMvvjcm9z-60" style="edgeStyle=orthogonalEdgeStyle;curved=1;rounded=0;orthogonalLoop=1;jettySize=auto;html=1;entryX=0;entryY=0.5;entryDx=0;entryDy=0;fontSize=23;fontColor=#FFFFCC;" parent="1" source="4U3FeDI-1R1MMvvjcm9z-1" target="4U3FeDI-1R1MMvvjcm9z-53" edge="1">
                    <mxGeometry relative="1" as="geometry"/>
                </mxCell>
                <mxCell id="4U3FeDI-1R1MMvvjcm9z-61" style="edgeStyle=orthogonalEdgeStyle;curved=1;rounded=0;orthogonalLoop=1;jettySize=auto;html=1;fontSize=23;fontColor=#FFFFCC;" parent="1" source="4U3FeDI-1R1MMvvjcm9z-1" target="4U3FeDI-1R1MMvvjcm9z-6" edge="1">
                    <mxGeometry relative="1" as="geometry"/>
                </mxCell>
                <mxCell id="4U3FeDI-1R1MMvvjcm9z-63" style="edgeStyle=orthogonalEdgeStyle;curved=1;rounded=0;orthogonalLoop=1;jettySize=auto;html=1;entryX=1;entryY=0.75;entryDx=0;entryDy=0;fontSize=23;fontColor=#FFFFCC;exitX=0;exitY=0.5;exitDx=0;exitDy=0;" parent="1" source="4U3FeDI-1R1MMvvjcm9z-1" target="4U3FeDI-1R1MMvvjcm9z-10" edge="1">
                    <mxGeometry relative="1" as="geometry">
                        <Array as="points">
                            <mxPoint x="-130" y="42"/>
                            <mxPoint x="-130" y="242"/>
                        </Array>
                    </mxGeometry>
                </mxCell>
                <mxCell id="4U3FeDI-1R1MMvvjcm9z-64" style="edgeStyle=orthogonalEdgeStyle;curved=1;rounded=0;orthogonalLoop=1;jettySize=auto;html=1;fontSize=23;fontColor=#FFFFCC;" parent="1" source="4U3FeDI-1R1MMvvjcm9z-1" target="4U3FeDI-1R1MMvvjcm9z-4" edge="1">
                    <mxGeometry relative="1" as="geometry"/>
                </mxCell>
                <mxCell id="4U3FeDI-1R1MMvvjcm9z-65" style="edgeStyle=orthogonalEdgeStyle;curved=1;rounded=0;orthogonalLoop=1;jettySize=auto;html=1;entryX=1;entryY=0.5;entryDx=0;entryDy=0;fontSize=23;fontColor=#FFFFCC;" parent="1" source="4U3FeDI-1R1MMvvjcm9z-1" target="4U3FeDI-1R1MMvvjcm9z-7" edge="1">
                    <mxGeometry relative="1" as="geometry"/>
                </mxCell>
                <mxCell id="4U3FeDI-1R1MMvvjcm9z-66" style="edgeStyle=orthogonalEdgeStyle;curved=1;rounded=0;orthogonalLoop=1;jettySize=auto;html=1;fontSize=23;fontColor=#FFFFCC;" parent="1" source="4U3FeDI-1R1MMvvjcm9z-1" target="4U3FeDI-1R1MMvvjcm9z-2" edge="1">
                    <mxGeometry relative="1" as="geometry"/>
                </mxCell>
                <mxCell id="4U3FeDI-1R1MMvvjcm9z-67" style="edgeStyle=orthogonalEdgeStyle;curved=1;rounded=0;orthogonalLoop=1;jettySize=auto;html=1;fontSize=23;fontColor=#FFFFCC;" parent="1" source="4U3FeDI-1R1MMvvjcm9z-1" target="4U3FeDI-1R1MMvvjcm9z-9" edge="1">
                    <mxGeometry relative="1" as="geometry"/>
                </mxCell>
                <mxCell id="2" style="edgeStyle=none;html=1;entryX=0.5;entryY=1;entryDx=0;entryDy=0;curved=1;" edge="1" parent="1" source="4U3FeDI-1R1MMvvjcm9z-1" target="4U3FeDI-1R1MMvvjcm9z-54">
                    <mxGeometry relative="1" as="geometry">
                        <Array as="points">
                            <mxPoint x="30" y="-150"/>
                        </Array>
                    </mxGeometry>
                </mxCell>
                <mxCell id="4U3FeDI-1R1MMvvjcm9z-1" value="&lt;b&gt;&lt;font style=&quot;font-size: 23px;&quot;&gt;machine learning&lt;/font&gt;&lt;/b&gt;" style="rounded=1;whiteSpace=wrap;html=1;fillColor=#6d8764;strokeColor=#3A5431;strokeWidth=2;fontColor=#ffffff;" parent="1" vertex="1">
                    <mxGeometry x="-60" y="12.5" width="220" height="60" as="geometry"/>
                </mxCell>
                <mxCell id="4U3FeDI-1R1MMvvjcm9z-27" style="edgeStyle=orthogonalEdgeStyle;rounded=0;orthogonalLoop=1;jettySize=auto;html=1;entryX=0;entryY=0.5;entryDx=0;entryDy=0;curved=1;" parent="1" source="4U3FeDI-1R1MMvvjcm9z-2" target="4U3FeDI-1R1MMvvjcm9z-22" edge="1">
                    <mxGeometry relative="1" as="geometry"/>
                </mxCell>
                <mxCell id="4U3FeDI-1R1MMvvjcm9z-2" value="Clustering" style="rounded=1;whiteSpace=wrap;html=1;strokeWidth=2;" parent="1" vertex="1">
                    <mxGeometry x="135" y="120" width="120" height="30" as="geometry"/>
                </mxCell>
                <mxCell id="4U3FeDI-1R1MMvvjcm9z-3" value="&lt;ul&gt;&lt;li&gt;principal component analysis&amp;nbsp;&lt;/li&gt;&lt;li&gt;factor analysis&amp;nbsp;&lt;/li&gt;&lt;li&gt;kernel pca&lt;/li&gt;&lt;li&gt;singular value decomposition&lt;/li&gt;&lt;li&gt;matrix factorization&lt;/li&gt;&lt;li&gt;latent dirichlet allocation&lt;/li&gt;&lt;/ul&gt;" style="rounded=1;whiteSpace=wrap;html=1;strokeWidth=2;align=left;" parent="1" vertex="1">
                    <mxGeometry x="-210" y="-400" width="190" height="150" as="geometry"/>
                </mxCell>
                <mxCell id="4U3FeDI-1R1MMvvjcm9z-35" style="edgeStyle=orthogonalEdgeStyle;rounded=0;orthogonalLoop=1;jettySize=auto;html=1;entryX=0.5;entryY=0;entryDx=0;entryDy=0;curved=1;" parent="1" source="4U3FeDI-1R1MMvvjcm9z-4" target="4U3FeDI-1R1MMvvjcm9z-11" edge="1">
                    <mxGeometry relative="1" as="geometry"/>
                </mxCell>
                <mxCell id="4U3FeDI-1R1MMvvjcm9z-4" value="Regularization" style="rounded=1;whiteSpace=wrap;html=1;strokeWidth=2;" parent="1" vertex="1">
                    <mxGeometry x="-90" y="200" width="120" height="30" as="geometry"/>
                </mxCell>
                <mxCell id="4U3FeDI-1R1MMvvjcm9z-32" style="edgeStyle=orthogonalEdgeStyle;rounded=0;orthogonalLoop=1;jettySize=auto;html=1;entryX=0;entryY=0.5;entryDx=0;entryDy=0;curved=1;" parent="1" source="4U3FeDI-1R1MMvvjcm9z-5" target="4U3FeDI-1R1MMvvjcm9z-21" edge="1">
                    <mxGeometry relative="1" as="geometry"/>
                </mxCell>
                <mxCell id="4U3FeDI-1R1MMvvjcm9z-5" value="Classification" style="rounded=1;whiteSpace=wrap;html=1;strokeWidth=2;" parent="1" vertex="1">
                    <mxGeometry x="210" y="-30" width="140" height="30" as="geometry"/>
                </mxCell>
                <mxCell id="4U3FeDI-1R1MMvvjcm9z-51" style="edgeStyle=orthogonalEdgeStyle;rounded=0;orthogonalLoop=1;jettySize=auto;html=1;entryX=1;entryY=0.5;entryDx=0;entryDy=0;curved=1;" parent="1" source="4U3FeDI-1R1MMvvjcm9z-6" target="4U3FeDI-1R1MMvvjcm9z-50" edge="1">
                    <mxGeometry relative="1" as="geometry"/>
                </mxCell>
                <mxCell id="4U3FeDI-1R1MMvvjcm9z-6" value="Evalutation" style="rounded=1;whiteSpace=wrap;html=1;strokeWidth=2;" parent="1" vertex="1">
                    <mxGeometry x="-260" y="-40" width="120" height="30" as="geometry"/>
                </mxCell>
                <mxCell id="4U3FeDI-1R1MMvvjcm9z-47" value="" style="edgeStyle=orthogonalEdgeStyle;rounded=0;orthogonalLoop=1;jettySize=auto;html=1;curved=1;" parent="1" source="4U3FeDI-1R1MMvvjcm9z-7" target="4U3FeDI-1R1MMvvjcm9z-46" edge="1">
                    <mxGeometry relative="1" as="geometry"/>
                </mxCell>
                <mxCell id="4U3FeDI-1R1MMvvjcm9z-7" value="Recommendation Systems" style="rounded=1;whiteSpace=wrap;html=1;strokeWidth=2;" parent="1" vertex="1">
                    <mxGeometry x="-300" y="50" width="120" height="30" as="geometry"/>
                </mxCell>
                <mxCell id="4U3FeDI-1R1MMvvjcm9z-28" style="edgeStyle=orthogonalEdgeStyle;rounded=0;orthogonalLoop=1;jettySize=auto;html=1;entryX=0;entryY=0.5;entryDx=0;entryDy=0;curved=1;" parent="1" source="4U3FeDI-1R1MMvvjcm9z-9" target="4U3FeDI-1R1MMvvjcm9z-23" edge="1">
                    <mxGeometry relative="1" as="geometry"/>
                </mxCell>
                <mxCell id="4U3FeDI-1R1MMvvjcm9z-9" value="Regression" style="rounded=1;whiteSpace=wrap;html=1;strokeWidth=2;" parent="1" vertex="1">
                    <mxGeometry x="70" y="290" width="120" height="30" as="geometry"/>
                </mxCell>
                <mxCell id="4U3FeDI-1R1MMvvjcm9z-44" style="edgeStyle=orthogonalEdgeStyle;rounded=0;orthogonalLoop=1;jettySize=auto;html=1;entryX=0.5;entryY=0;entryDx=0;entryDy=0;curved=1;" parent="1" source="4U3FeDI-1R1MMvvjcm9z-10" target="4U3FeDI-1R1MMvvjcm9z-24" edge="1">
                    <mxGeometry relative="1" as="geometry"/>
                </mxCell>
                <mxCell id="4U3FeDI-1R1MMvvjcm9z-10" value="Data Preprocessing" style="rounded=1;whiteSpace=wrap;html=1;strokeWidth=2;" parent="1" vertex="1">
                    <mxGeometry x="-362.5" y="190" width="120" height="30" as="geometry"/>
                </mxCell>
                <mxCell id="4U3FeDI-1R1MMvvjcm9z-11" value="&lt;ul&gt;&lt;li&gt;Lasso&amp;nbsp;&lt;/li&gt;&lt;li&gt;Ridge&lt;/li&gt;&lt;li style=&quot;text-align: left;&quot;&gt;Elastic Net&lt;/li&gt;&lt;/ul&gt;" style="rounded=1;whiteSpace=wrap;html=1;strokeWidth=2;" parent="1" vertex="1">
                    <mxGeometry x="-100" y="329" width="140" height="111" as="geometry"/>
                </mxCell>
                <mxCell id="4U3FeDI-1R1MMvvjcm9z-48" style="edgeStyle=orthogonalEdgeStyle;rounded=0;orthogonalLoop=1;jettySize=auto;html=1;curved=1;" parent="1" source="4U3FeDI-1R1MMvvjcm9z-14" target="4U3FeDI-1R1MMvvjcm9z-3" edge="1">
                    <mxGeometry relative="1" as="geometry"/>
                </mxCell>
                <mxCell id="4U3FeDI-1R1MMvvjcm9z-14" value="Dimensionality &lt;br&gt;Reduction" style="rounded=1;whiteSpace=wrap;html=1;strokeWidth=2;" parent="1" vertex="1">
                    <mxGeometry x="-110" y="-150" width="140" height="40" as="geometry"/>
                </mxCell>
                <mxCell id="4U3FeDI-1R1MMvvjcm9z-21" value="&lt;ul&gt;&lt;li&gt;naive bayes&amp;nbsp;&lt;/li&gt;&lt;li&gt;logistic regression&amp;nbsp;&lt;/li&gt;&lt;li&gt;polynomial regression&lt;/li&gt;&lt;li&gt;decision trees&lt;/li&gt;&lt;li&gt;random forest&lt;/li&gt;&lt;li&gt;adaboost&lt;/li&gt;&lt;li&gt;gradient boost&lt;/li&gt;&lt;li&gt;xgboost&lt;/li&gt;&lt;li&gt;light GBM&lt;/li&gt;&lt;li&gt;catboost&lt;/li&gt;&lt;li&gt;linear discriminant analysis&lt;/li&gt;&lt;li&gt;support vector machines&lt;/li&gt;&lt;li&gt;k-nearest neighbor&lt;/li&gt;&lt;/ul&gt;" style="rounded=1;whiteSpace=wrap;html=1;strokeWidth=2;align=left;" parent="1" vertex="1">
                    <mxGeometry x="380" y="-210" width="290" height="270" as="geometry"/>
                </mxCell>
                <mxCell id="4U3FeDI-1R1MMvvjcm9z-22" value="&lt;ul&gt;&lt;li&gt;affinity propagation&lt;/li&gt;&lt;li&gt;agglomerative clustering&lt;/li&gt;&lt;li&gt;kmeans clustering&lt;/li&gt;&lt;li&gt;optics&lt;/li&gt;&lt;li&gt;gaussian mixture models&lt;/li&gt;&lt;li&gt;Expectation maximization&lt;/li&gt;&lt;li&gt;mean shift&lt;/li&gt;&lt;li&gt;spectral clustering&lt;/li&gt;&lt;li&gt;dbscan&lt;/li&gt;&lt;li&gt;birch&lt;/li&gt;&lt;/ul&gt;" style="rounded=1;whiteSpace=wrap;html=1;strokeWidth=2;align=left;" parent="1" vertex="1">
                    <mxGeometry x="320" y="105" width="190" height="220" as="geometry"/>
                </mxCell>
                <mxCell id="4U3FeDI-1R1MMvvjcm9z-23" value="&lt;ul&gt;&lt;li&gt;Linear regression&lt;/li&gt;&lt;li&gt;polynomial regression&lt;/li&gt;&lt;li&gt;random forest&lt;/li&gt;&lt;li&gt;decision trees&lt;/li&gt;&lt;li&gt;adaboost&lt;/li&gt;&lt;li&gt;xgboost&lt;/li&gt;&lt;li&gt;light GBM&lt;/li&gt;&lt;li&gt;catboost&lt;/li&gt;&lt;li&gt;k-nearest neighbor&lt;/li&gt;&lt;li&gt;svm&lt;/li&gt;&lt;/ul&gt;" style="rounded=1;whiteSpace=wrap;html=1;strokeWidth=2;align=left;" parent="1" vertex="1">
                    <mxGeometry x="190" y="380" width="190" height="220" as="geometry"/>
                </mxCell>
                <mxCell id="4U3FeDI-1R1MMvvjcm9z-24" value="&lt;ul&gt;&lt;li&gt;variance inflation factor&lt;/li&gt;&lt;li&gt;data transformation&lt;/li&gt;&lt;ul&gt;&lt;li&gt;standardization&lt;/li&gt;&lt;li&gt;normalization&lt;/li&gt;&lt;li&gt;log-transformation&lt;/li&gt;&lt;li&gt;box-cox transformation&lt;/li&gt;&lt;/ul&gt;&lt;li&gt;outlier analysis&lt;/li&gt;&lt;li&gt;missing value imputation&lt;/li&gt;&lt;ul&gt;&lt;li&gt;simple imputation&lt;/li&gt;&lt;li&gt;algorithmic imputation&lt;/li&gt;&lt;/ul&gt;&lt;li&gt;handling data imbalace&amp;nbsp;&lt;/li&gt;&lt;ul&gt;&lt;li&gt;oversampling&amp;nbsp;&lt;/li&gt;&lt;li&gt;undersampling&lt;/li&gt;&lt;li&gt;smote technique&lt;/li&gt;&lt;li&gt;random sampling&lt;/li&gt;&lt;/ul&gt;&lt;li&gt;variance threshold&lt;/li&gt;&lt;/ul&gt;" style="rounded=1;whiteSpace=wrap;html=1;strokeWidth=2;align=left;" parent="1" vertex="1">
                    <mxGeometry x="-422.5" y="300" width="240" height="360" as="geometry"/>
                </mxCell>
                <mxCell id="4U3FeDI-1R1MMvvjcm9z-46" value="&lt;ul&gt;&lt;li&gt;collaborative filtering&lt;/li&gt;&lt;li&gt;matrix decomposition&lt;/li&gt;&lt;li&gt;Content based&lt;/li&gt;&lt;li&gt;Hybrid Recommendatoins&lt;/li&gt;&lt;/ul&gt;" style="whiteSpace=wrap;html=1;rounded=1;strokeWidth=2;align=left;" parent="1" vertex="1">
                    <mxGeometry x="-640" y="135" width="170" height="175" as="geometry"/>
                </mxCell>
                <mxCell id="4U3FeDI-1R1MMvvjcm9z-49" value="&lt;ul&gt;&lt;li&gt;Grid search&amp;nbsp;&lt;/li&gt;&lt;li&gt;random search&amp;nbsp;&lt;/li&gt;&lt;li&gt;bayesian&amp;nbsp;&lt;/li&gt;&lt;li&gt;keras tuner&lt;/li&gt;&lt;li&gt;population based&lt;/li&gt;&lt;li&gt;evolutionary algorithms&lt;/li&gt;&lt;li&gt;param-ILS&lt;/li&gt;&lt;/ul&gt;" style="rounded=1;whiteSpace=wrap;html=1;strokeWidth=2;align=left;" parent="1" vertex="1">
                    <mxGeometry y="-617" width="190" height="217" as="geometry"/>
                </mxCell>
                <mxCell id="4U3FeDI-1R1MMvvjcm9z-50" value="&lt;ul&gt;&lt;li&gt;Cross Validation&lt;/li&gt;&lt;ul&gt;&lt;li&gt;leave p out&lt;/li&gt;&lt;li&gt;k-fold&lt;/li&gt;&lt;li&gt;stratified k-fold&lt;/li&gt;&lt;li&gt;time series&lt;/li&gt;&lt;li&gt;nested&lt;/li&gt;&lt;li&gt;out of time&lt;/li&gt;&lt;/ul&gt;&lt;li&gt;decile analysis&lt;/li&gt;&lt;li&gt;means squared&lt;/li&gt;&lt;li&gt;root mean squared&lt;/li&gt;&lt;li&gt;mean absolute&amp;nbsp;&lt;/li&gt;&lt;li&gt;mean absolute percentage&lt;/li&gt;&lt;li&gt;r-squared&lt;/li&gt;&lt;li&gt;accuracy&amp;nbsp;&lt;/li&gt;&lt;li&gt;precision&amp;nbsp;&lt;/li&gt;&lt;li&gt;recall&amp;nbsp;&lt;/li&gt;&lt;li&gt;f-beta score&lt;/li&gt;&lt;li&gt;roc-auc&lt;/li&gt;&lt;li&gt;Cohen kappa&lt;/li&gt;&lt;li&gt;hinge loss&lt;/li&gt;&lt;li&gt;log -loss&lt;/li&gt;&lt;li&gt;categorical cross entropy&lt;/li&gt;&lt;li&gt;Jaccard score&lt;/li&gt;&lt;li&gt;hamming loss&lt;/li&gt;&lt;/ul&gt;" style="rounded=1;whiteSpace=wrap;html=1;strokeWidth=2;align=left;" parent="1" vertex="1">
                    <mxGeometry x="-650" y="-550" width="280" height="520" as="geometry"/>
                </mxCell>
                <mxCell id="4U3FeDI-1R1MMvvjcm9z-52" value="&lt;ul&gt;&lt;li&gt;Variance threshold&lt;/li&gt;&lt;li&gt;random forest feature importance&amp;nbsp;&lt;/li&gt;&lt;li&gt;lightgbm - fimp&lt;/li&gt;&lt;li&gt;catboost -fimp&lt;/li&gt;&lt;li&gt;forward selection&amp;nbsp;&lt;/li&gt;&lt;li&gt;backward elimination&amp;nbsp;&lt;/li&gt;&lt;li&gt;recursive feature elimination&amp;nbsp;&lt;/li&gt;&lt;li&gt;correlation analysis&amp;nbsp;&lt;/li&gt;&lt;ul&gt;&lt;li&gt;chi-square statistics&lt;/li&gt;&lt;li&gt;anova&lt;/li&gt;&lt;li&gt;correlation coefficient&lt;/li&gt;&lt;li&gt;mutual information&amp;nbsp;&lt;/li&gt;&lt;/ul&gt;&lt;/ul&gt;" style="rounded=1;whiteSpace=wrap;html=1;strokeWidth=2;align=left;" parent="1" vertex="1">
                    <mxGeometry x="340" y="-630" width="300" height="360" as="geometry"/>
                </mxCell>
                <mxCell id="4U3FeDI-1R1MMvvjcm9z-68" style="edgeStyle=orthogonalEdgeStyle;curved=1;rounded=0;orthogonalLoop=1;jettySize=auto;html=1;entryX=0;entryY=0.5;entryDx=0;entryDy=0;fontSize=23;fontColor=#FFFFCC;" parent="1" source="4U3FeDI-1R1MMvvjcm9z-53" target="4U3FeDI-1R1MMvvjcm9z-52" edge="1">
                    <mxGeometry relative="1" as="geometry"/>
                </mxCell>
                <mxCell id="4U3FeDI-1R1MMvvjcm9z-53" value="Feature Selection" style="rounded=1;whiteSpace=wrap;html=1;strokeWidth=2;" parent="1" vertex="1">
                    <mxGeometry x="140" y="-200" width="140" height="30" as="geometry"/>
                </mxCell>
                <mxCell id="4U3FeDI-1R1MMvvjcm9z-69" style="edgeStyle=orthogonalEdgeStyle;curved=1;rounded=0;orthogonalLoop=1;jettySize=auto;html=1;entryX=0.5;entryY=1;entryDx=0;entryDy=0;fontSize=23;fontColor=#FFFFCC;" parent="1" source="4U3FeDI-1R1MMvvjcm9z-54" target="4U3FeDI-1R1MMvvjcm9z-49" edge="1">
                    <mxGeometry relative="1" as="geometry"/>
                </mxCell>
                <mxCell id="4U3FeDI-1R1MMvvjcm9z-54" value="Hyperparameter Tuning" style="rounded=1;whiteSpace=wrap;html=1;strokeWidth=2;" parent="1" vertex="1">
                    <mxGeometry x="70" y="-305" width="140" height="30" as="geometry"/>
                </mxCell>
            </root>
        </mxGraphModel>
    </diagram>
</mxfile>